<svg xmlns="http://www.w3.org/2000/svg" xmlns:xlink="http://www.w3.org/1999/xlink" viewBox="0 0 301.7 229.58"><defs><style>.cls-1{fill:none;stroke:#fff;stroke-miterlimit:10;}.cls-2{clip-path:url(#clip-path);}.cls-3{fill:#f2f2f2;}.cls-4{fill:#4d4d4d;}.cls-5{fill:#e6e6e6;}.cls-6{fill:#a67c52;}.cls-7{fill:#c69c6d;}.cls-8{fill:#8c6239;}.cls-9{fill:#fcee21;}.cls-10{fill:#fbb03b;}.cls-11{fill:#d9e021;}</style><clipPath id="clip-path"><path class="cls-1" d="M282.62,119.86A109.22,109.22,0,1,1,173.4,10.65,109.22,109.22,0,0,1,282.62,119.86Z"/></clipPath></defs><title>Asset 6</title><g id="Layer_2" data-name="Layer 2"><g id="Layer_1-2" data-name="Layer 1"><g class="cls-2"><path class="cls-3" d="M289.94,74.72c-14.16,21.17-35.52,31.72-47.71,23.56s-10.6-31.92,3.56-53.09,35.52-31.72,47.72-23.57S304.1,53.55,289.94,74.72Z"/><path class="cls-3" d="M247.07,55.11c-23,11-46.72,9.22-53.06-4s7.13-32.88,30.09-43.89,46.73-9.23,53.07,4S270,44.09,247.07,55.11Z"/><path class="cls-4" d="M236.09,134.19a8.33,8.33,0,0,1-11.68,1.6l-15-11.4a8.34,8.34,0,0,1-1.61-11.68l19.8-26.12A8.34,8.34,0,0,1,239.24,85l15,11.4a8.34,8.34,0,0,1,1.61,11.68Z"/><path class="cls-5" d="M200.26,142.1c-9.54,4.3-14.42,6.29-24.41,9.94L172,151a443.41,443.41,0,0,1-64.07,18.83c-.07-.27-.11-.4-.19-.66a436.14,436.14,0,0,0,62.37-22.24c.67-1.38,1-2.07,1.65-3.45,9.19-4.81,13.64-7.36,22.23-12.72a8.53,8.53,0,0,1,5.46,4.33A8.78,8.78,0,0,1,200.26,142.1Z"/><path class="cls-6" d="M262.46,128l-80.67,26.34-6.81-19,79.11-30.73s4,2.91,6.71,10.65S262.46,128,262.46,128Z"/><path class="cls-7" d="M255.91,108.47a14.4,14.4,0,0,0-2.48-2.66l-77.1,30,.92,2.56Z"/><path class="cls-4" d="M206.43,157.54a6.42,6.42,0,0,1-8.27,3.76h0A6.43,6.43,0,0,1,194.4,153l6.3-16.77a6.42,6.42,0,0,1,8.27-3.75h0a6.43,6.43,0,0,1,3.76,8.27Z"/><path class="cls-4" d="M193.2,134.66c-4.55,2.89-9.78,2.79-11.68-.21h0c-1.9-3,.25-7.76,4.8-10.64l23-14.55c4.55-2.88,9.78-2.79,11.67.21h0c1.9,3-.25,7.76-4.8,10.65Z"/><path class="cls-4" d="M220.32,152.58a6.42,6.42,0,0,1-8.27,3.76h0a6.42,6.42,0,0,1-3.76-8.28l6.29-16.76a6.43,6.43,0,0,1,8.28-3.75h0a6.42,6.42,0,0,1,3.75,8.27Z"/><path class="cls-4" d="M234.05,145.28c-1.09,2.92-4.67,4.27-8,3h0c-3.32-1.24-5.12-4.62-4-7.54L227.55,126c1.1-2.92,4.68-4.28,8-3h0c3.32,1.25,5.13,4.63,4,7.54Z"/><path class="cls-4" d="M246.88,138.79c-1,2.6-4.46,3.7-7.78,2.45h0c-3.32-1.25-5.22-4.37-4.25-7l4.92-13.11c1-2.6,4.46-3.69,7.78-2.45h0c3.33,1.25,5.23,4.37,4.25,7Z"/><rect class="cls-8" x="70.58" y="170.46" width="209.37" height="56.18"/><rect class="cls-9" x="70.24" y="169.64" width="209" height="9"/><path class="cls-9" d="M150,107c-3.77,1.68-6.15,3.19-5.19,6.7-5.75-.6-8.16.8-11.28,5.71-1.74-2.23-4.18-.94-7.06.84-2,.68-4.51,1.85-7,3C82.12,139.94,41.56,144.05,0,135.08q4.35-18,8.71-36a164,164,0,0,0,36.45,3.58,34.31,34.31,0,0,0,6.35-.5c3.14.07,5.5-.14,3.53-3.08,6.66,2.42,9,2.1,10.72-5.24,1.93,6.75,3.26,6.52,7.24.77-1.71,5.18-.77,4.83,2.67.8-.81,3.46.88,3.23,3.2,1.47-.32.34,0-.86-.62-3a15.59,15.59,0,0,0,5.39,1.56,4.49,4.49,0,0,0,3.74-1.31c1.56-.67,2.79-2,3.92-4.25.73,2.31,1.6,3.06,1.12.9,2.83,2.22,4.32,1.53,5.23-2.37,1.21,3.31,2.48,2.79,3.69-.58,1.22,2.31,2.39,1.77,3.82-.18,1.09.8,2.43.19,3.28-.51s1.14-1.33.54-2.13c6.17-1,8.63-2.34,10.87-7.79,2.66,2.57,5.09,1.07,8.72-2.11-.27,2.94.67,4.29,3.59,4.59-1,2.39-.09,3.74,2.32,5-.52,1.48.42,2.83,1.62,4.22a13.86,13.86,0,0,0,1.9,2.87A10.58,10.58,0,0,0,140.4,94c1.1,2.95,2.51,5,5.66,5.57C145.74,103,147.15,105,150,107Z"/><path class="cls-10" d="M170.62,136.47c-2.5,1.58-4.84,3.16-5.56,6.36-4-.17-6.37,1.3-8.54,4.43a9.3,9.3,0,0,0-7,2.54c-2.9,1.09-5.34,2.33-6.46,5.48-3.79-.78-6.27.35-8.83,3a8.08,8.08,0,0,0-3.68.17,8.73,8.73,0,0,0-3.39,1.55c-2.88.7-5.41,1.6-7.19,4.22-3.32-.92-5.88-.13-8.64,1.64-2.38-.3-5,.38-7.57,1-26,6.23-53.25,6.8-81.11,1.57l7.74-36.18c2.52.46,5,.86,7.54,1.21s5,.63,7.48.85,5,.41,7-.85a8,8,0,0,0,8.25,0c2,1.58,4.44,1.52,7,1.27a19.18,19.18,0,0,0,3.45-.12,20.56,20.56,0,0,0,3.3-.61c2.75.13,5.13-.16,7-2.23,2.89,1.38,5.25,1,7.93-.67,2,.74,4.35.23,6.67-.34a35.9,35.9,0,0,0,7.48-2.49,18.6,18.6,0,0,0,7.91-3,24.84,24.84,0,0,0,7.71-2.29,29.77,29.77,0,0,0,3.53-1.69,5.32,5.32,0,0,0,2.18-2c4.26-.94,6.73-2.23,5.92-7.09,5.7,2.14,8.13.71,11.15-4.18,1.8,1.89,4.19.31,6.56-1.33a26.8,26.8,0,0,0,2.32,2.84,11.24,11.24,0,0,0,2.29,3,9.42,9.42,0,0,0,2.09,2.89,4.67,4.67,0,0,0,2.42,1.59c1.15,3.59,2.62,5.57,6.84,4.61-1.28,4.92.18,6.91,4.76,8.46C167.5,132.46,169,134.44,170.62,136.47Z"/><path class="cls-11" d="M101.59,101.37c.17,1.87-.89,3.5-2.37,3.64s-2.84-1.27-3-3.14.88-3.5,2.37-3.64S101.42,99.49,101.59,101.37Z"/><path class="cls-11" d="M107.11,110.78a1.55,1.55,0,1,1-1.68-1.74A1.74,1.74,0,0,1,107.11,110.78Z"/><path class="cls-11" d="M115.45,96.33a1.54,1.54,0,1,1-1.67-1.74A1.72,1.72,0,0,1,115.45,96.33Z"/><path class="cls-11" d="M137.17,102.47a1.54,1.54,0,1,1-1.67-1.74A1.72,1.72,0,0,1,137.17,102.47Z"/><path class="cls-11" d="M125.82,106a1.54,1.54,0,1,1-1.68-1.74A1.73,1.73,0,0,1,125.82,106Z"/><path class="cls-11" d="M103.66,123.84A1.55,1.55,0,1,1,102,122.1,1.74,1.74,0,0,1,103.66,123.84Z"/><path class="cls-11" d="M87.72,107.11a1.54,1.54,0,1,1-1.67-1.75A1.73,1.73,0,0,1,87.72,107.11Z"/><path class="cls-11" d="M84.59,123.64a1.54,1.54,0,1,1-1.67-1.74A1.73,1.73,0,0,1,84.59,123.64Z"/><path class="cls-11" d="M117.9,110.88c.18,1.87-.89,3.5-2.37,3.64s-2.84-1.27-3-3.14.88-3.5,2.37-3.64S117.73,109,117.9,110.88Z"/><path class="cls-11" d="M126.62,91.66c.17,1.87-.89,3.5-2.38,3.64s-2.83-1.26-3-3.13.89-3.5,2.38-3.64S126.44,89.79,126.62,91.66Z"/><path class="cls-11" d="M94.91,119.87c.18,1.87-.89,3.5-2.37,3.64s-2.84-1.27-3-3.14.89-3.5,2.37-3.64S94.74,118,94.91,119.87Z"/><path class="cls-7" d="M144.34,125.57c.18,1.88-.89,3.5-2.38,3.64s-2.83-1.26-3-3.13.89-3.5,2.38-3.64S144.16,123.7,144.34,125.57Z"/><path class="cls-7" d="M117.94,143.12c.18,1.87-.88,3.5-2.37,3.64s-2.84-1.27-3-3.14.89-3.5,2.37-3.64S117.77,141.25,117.94,143.12Z"/><path class="cls-7" d="M137.13,147.8c.18,1.88-.88,3.51-2.37,3.64s-2.84-1.26-3-3.13.89-3.5,2.37-3.64S137,145.93,137.13,147.8Z"/><path class="cls-7" d="M128.54,129c.17,1.87-.89,3.5-2.38,3.64s-2.83-1.26-3-3.13.89-3.5,2.38-3.64S128.36,127.11,128.54,129Z"/><path class="cls-7" d="M159.5,134c.17,1.87-.89,3.5-2.38,3.64s-2.83-1.27-3-3.14.89-3.5,2.38-3.64S159.32,132.1,159.5,134Z"/><path class="cls-7" d="M102.67,155.94c.18,1.87-.88,3.5-2.37,3.64s-2.84-1.26-3-3.13.88-3.5,2.37-3.64S102.5,154.07,102.67,155.94Z"/><path class="cls-7" d="M105.89,137.88a1.82,1.82,0,1,1-2-2.06A2.05,2.05,0,0,1,105.89,137.88Z"/><path class="cls-7" d="M122.52,154.43a1.83,1.83,0,1,1-2-2.06A2.06,2.06,0,0,1,122.52,154.43Z"/><path class="cls-7" d="M147.36,116.59a1.83,1.83,0,1,1-2-2.07A2.05,2.05,0,0,1,147.36,116.59Z"/><path class="cls-7" d="M147.73,140.5a1.83,1.83,0,1,1-2-2.06A2.06,2.06,0,0,1,147.73,140.5Z"/><path class="cls-7" d="M134.42,136.84a1.83,1.83,0,1,1-3.54.34,1.83,1.83,0,1,1,3.54-.34Z"/><path class="cls-7" d="M90.1,159.19a1.82,1.82,0,1,1-2-2.06A2,2,0,0,1,90.1,159.19Z"/><path class="cls-7" d="M106.82,148.05a1.83,1.83,0,1,1-2-2.07A2.05,2.05,0,0,1,106.82,148.05Z"/><path class="cls-7" d="M115.53,128.77a1.83,1.83,0,1,1-2-2.06A2.07,2.07,0,0,1,115.53,128.77Z"/><path class="cls-7" d="M90.26,141.33c.18,1.87-.88,3.5-2.37,3.64s-2.84-1.26-3-3.13.89-3.5,2.37-3.64S90.09,139.46,90.26,141.33Z"/><path class="cls-4" d="M117.27,86.15a6.43,6.43,0,0,1-9-.84h0a6.43,6.43,0,0,1,.84-9l34.26-28.63a6.43,6.43,0,0,1,9.05.84h0a6.43,6.43,0,0,1-.83,9.05Z"/><path class="cls-4" d="M119.69,76a6.43,6.43,0,0,1-8.91-1.78h0a6.42,6.42,0,0,1,1.78-8.91l37.06-24.9a6.44,6.44,0,0,1,8.92,1.78h0a6.43,6.43,0,0,1-1.78,8.91Z"/><path class="cls-4" d="M155.18,98.74c-.7,3.65-3.79,6.45-7.32,6.12h0c-3.54-.33-6.13-4.3-5.27-8.69,4.13-15,9.59-25.58,19.45-37.62,3.05-3.19,7.67-3.26,9.93-.52h0c2.27,2.73,1.81,6.83-.71,9.47A62.8,62.8,0,0,0,155.18,98.74Z"/><path class="cls-4" d="M152.23,39.43c8.55,0,38.91.52,42.58-2.1,3.84,8.73,8.72,16.06,4,21.81s-28.44,7-34.9,16.58c.88-10.12-9.77-19.19-17.79-16.58C149.27,48.5,152.23,39.43,152.23,39.43Z"/></g><path class="cls-1" d="M282.62,119.86A109.22,109.22,0,1,1,173.4,10.65,109.22,109.22,0,0,1,282.62,119.86Z"/></g></g></svg>