<svg xmlns="http://www.w3.org/2000/svg" xmlns:xlink="http://www.w3.org/1999/xlink" viewBox="0 0 219.43 219.43"><defs><style>.cls-1{fill:#e6e6e6;}.cls-2{fill:#fbb03b;}.cls-3{fill:#feceaa;}.cls-4{stroke:#f15a24;stroke-width:2.13px;fill:url(#linear-gradient);}.cls-4,.cls-5{stroke-linecap:round;stroke-linejoin:round;}.cls-20,.cls-5,.cls-7{fill:none;}.cls-5{stroke:#e8a070;stroke-width:2.14px;}.cls-6{fill:#fff;}.cls-7{stroke:#e6e6e6;stroke-width:9.62px;}.cls-20,.cls-7{stroke-miterlimit:10;}.cls-8{fill:#eeb84d;}.cls-9{fill:#333;}.cls-10{fill:#fcee21;}.cls-11{fill:gray;}.cls-12{fill:#999;}.cls-13{fill:#666;}.cls-14{fill:#b3b3b3;}.cls-15{fill:#eed47d;}.cls-16{fill:#eeeba1;}.cls-17{fill:#eeffba;}.cls-18{fill:#eec257;}.cls-19{fill:#eeac41;}.cls-20{stroke:#fff;}</style><linearGradient id="linear-gradient" x1="88.95" y1="52.11" x2="130.77" y2="52.11" gradientUnits="userSpaceOnUse"><stop offset="0" stop-color="#fff" stop-opacity="0.4"/><stop offset="1" stop-color="#fff" stop-opacity="0.4"/></linearGradient></defs><title>Asset 2</title><g id="Layer_2" data-name="Layer 2"><g id="Layer_1-2" data-name="Layer 1"><rect class="cls-1" x="104.6" y="71.23" width="10.84" height="12.92"/><path class="cls-2" d="M100.1,184.27s0,3.51-.56,4.29-5.5,2.36-7.92,3.78-3,3.82-1.08,3.82h10.84l1.07-.73H103v.73h3c1.69,0,1.18-2.15,1.18-2.15l-.4-9.74Z"/><path class="cls-1" d="M107.11,186.67H98.92S95,184.86,95,179.26V145.41h13.89v38.43A3.43,3.43,0,0,1,107.11,186.67Z"/><path class="cls-2" d="M119.9,184.27s0,3.51.57,4.29,5.49,2.36,7.91,3.78,3,3.82,1.09,3.82H118.62l-1.06-.73H117v.73h-3c-1.69,0-1.19-2.15-1.19-2.15l.4-9.74Z"/><path class="cls-1" d="M112.89,186.67h8.19s3.88-1.81,3.88-7.41V145.41H111.07v38.43A3.43,3.43,0,0,0,112.89,186.67Z"/><path class="cls-1" d="M134.4,52.08C134.4,66,123.49,77.19,110,77.19S85.63,66,85.63,52.08,96.55,22.7,110,22.7,134.4,38.21,134.4,52.08Z"/><path class="cls-3" d="M131.6,50.16c0,13-9.66,23.47-21.58,23.47S88.43,63.13,88.43,50.16,98.09,22.7,110,22.7,131.6,37.2,131.6,50.16Z"/><path class="cls-1" d="M120.48,79H99.42a9.65,9.65,0,0,0-9.62,9.62v51.76A9.65,9.65,0,0,0,99.43,150h21a9.65,9.65,0,0,0,9.63-9.62V88.65A9.65,9.65,0,0,0,120.48,79Z"/><path class="cls-4" d="M112.25,45.13H89c.42,7.79,5.47,13.95,11.65,13.95,3.78,0,7.13-2.31,9.26-5.88,2.14,3.57,5.49,5.88,9.26,5.88,6.18,0,11.24-6.16,11.65-13.95Z"/><line class="cls-5" x1="103.69" y1="64.97" x2="116.34" y2="64.97"/><path class="cls-6" d="M94.05,49.23c.2,3.28,2.58,5.87,5.49,5.87s5.3-2.59,5.5-5.87Z"/><path d="M101.87,51.93a1.17,1.17,0,0,1-2.34,0,1.17,1.17,0,1,1,2.34,0Z"/><path class="cls-6" d="M115.23,49.23c.2,3.28,2.58,5.87,5.49,5.87s5.3-2.59,5.49-5.87Z"/><circle cx="121.88" cy="51.93" r="1.17"/><path class="cls-1" d="M110,39.08c9.84,0,18.13,1.78,20.73,4.21C128.14,32.56,119.85,22.7,110,22.7S91.89,32.56,89.29,43.29C91.88,40.86,100.18,39.08,110,39.08Z"/><path class="cls-7" d="M162.85,78.6c1.48,24.41-20.22,23.59-40,6.46"/><rect class="cls-8" x="102.09" y="74.03" width="74.84" height="28.4" transform="translate(7.65 187.54) rotate(-69.3)"/><path class="cls-9" d="M158.92,77.87a4.68,4.68,0,0,0,6.46,1.47h0a4.69,4.69,0,0,0,1.46-6.47L162.49,66c-1.38-2.19-3.66-1.86-5.84-.48h0c-2.2,1.38-3.47,3.29-2.09,5.48Z"/><path class="cls-9" d="M163.92,75a1.81,1.81,0,0,0,1.78,1.85h0A1.82,1.82,0,0,0,167.55,75l.15-8.41a1.83,1.83,0,0,0-1.79-1.86h0a1.82,1.82,0,0,0-1.85,1.78Z"/><rect class="cls-2" x="61.65" y="140.33" width="29.75" height="2.7"/><rect class="cls-10" x="61.65" y="140.96" width="29.75" height="0.39"/><rect class="cls-10" x="91.41" y="139.46" width="2.31" height="27.71"/><rect class="cls-10" x="59.34" y="139.46" width="2.32" height="27.71"/><path class="cls-9" d="M83.49,140.86a4.4,4.4,0,0,1-4.26,4.53h0a4.39,4.39,0,0,1-4.52-4.26l-.24-7.64c-.08-2.43,1.86-3.37,4.29-3.44h0c2.42-.08,4.41.74,4.49,3.16Z"/><path class="cls-7" d="M97.31,84.54c-13.83,7.7-22.66,28.19-18.44,50.85"/><path class="cls-11" d="M86.13,138.92c-2,4.09-2.21,8.05-.3,9.15s5.24-1,7.76-4.86Z"/><path class="cls-12" d="M86.13,138.92c-1.8,3.69-1.79,7.33.12,8.43s5-.74,7.34-4.14Z"/><path class="cls-9" d="M82.57,157.84a.68.68,0,0,1-.95.3l-2.37-1.37a.65.65,0,0,1-.22-1l5.31-7.87a.79.79,0,0,1,1-.24l1,.57a.8.8,0,0,1,.32,1Z"/><path class="cls-13" d="M79.64,156.17,85,148.28a.79.79,0,0,1,.33-.27.75.75,0,0,0-.84.29l-5,7.44a.63.63,0,0,0,.09.82A.64.64,0,0,1,79.64,156.17Z"/><path class="cls-1" d="M87.4,139.65l-1.27-.73c-1.8,3.69-1.79,7.33.12,8.43a2.69,2.69,0,0,0,1.83.26Z"/><rect class="cls-12" x="58.41" y="133.74" width="3.68" height="4.05" rx="0.94" transform="translate(-36.87 23.38) rotate(-16.9)"/><path class="cls-12" d="M69.56,143.33a.44.44,0,0,1-.29.55l-1.36.41a.44.44,0,0,1-.54-.29l-2.43-8a.43.43,0,0,1,.3-.54l1.35-.42a.43.43,0,0,1,.54.29Z"/><path class="cls-1" d="M68.58,144.5a.11.11,0,0,1-.08.14l-.35.11a.11.11,0,0,1-.14-.08l-2.44-8a.12.12,0,0,1,.08-.15l.35-.1a.11.11,0,0,1,.14.07Z"/><path class="cls-9" d="M76.31,159.66a1,1,0,0,1-.75,1.15l-3.45,1a.94.94,0,0,1-1.26-.53c-1.52-6.53-2.28-9.8-3.79-16.33a.85.85,0,0,1,.41-1l2-.6c.34-.11.75.18.92.63C72.75,150.25,73.94,153.39,76.31,159.66Z"/><path class="cls-13" d="M71.77,161.11c-1.53-6.58-2.29-9.88-3.82-16.46a1.28,1.28,0,0,1,0-.39.83.83,0,0,0-.39,1l3.62,15.57a.76.76,0,0,0,.75.55A.6.6,0,0,1,71.77,161.11Z"/><path class="cls-12" d="M66.57,132h0l-2.92.89a.93.93,0,0,0-.66.87l-.67.2a2.42,2.42,0,0,1-1.53-.06l.91,3a2.25,2.25,0,0,1,1.18-.88l.66-.2.11.34a1,1,0,0,0,1.18.63l2.92-.89a1,1,0,0,0,.63-1.18l-.11-.34h0a8.81,8.81,0,0,1,3.88-.23l-.46-1.51A6,6,0,0,0,66.57,132Z"/><path class="cls-1" d="M63.6,133.73l3-.92h0a6.84,6.84,0,0,1,4.93.23l-.06-.17a5.9,5.9,0,0,0-4.87-.49h0l-2.81.86a.86.86,0,0,0-.63.74A1,1,0,0,1,63.6,133.73Z"/><path class="cls-1" d="M61.46,134.53c0,.12-.08.27-.26.32l-2.24.68a.31.31,0,0,1-.4-.12l-.15-.51c0-.12.08-.26.26-.32l2.24-.68c.18-.05.36,0,.4.12Z"/><path class="cls-1" d="M63.06,134.36s0,.11-.1.13l-.88.26c-.07,0-.14,0-.15-.05l-.06-.19s0-.11.1-.13l.87-.27c.08,0,.15,0,.16,0Z"/><rect class="cls-2" x="61.65" y="150.83" width="29.75" height="16.27"/><rect class="cls-14" x="109.46" y="73.65" width="1.09" height="65.12"/><rect class="cls-14" x="108.67" y="105.58" width="2.66" height="0.88"/><rect class="cls-14" x="108.67" y="107.32" width="2.66" height="0.88"/><rect class="cls-14" x="108.67" y="109.07" width="2.66" height="0.88"/><rect class="cls-14" x="108.67" y="110.81" width="2.66" height="0.88"/><rect class="cls-14" x="108.67" y="112.56" width="2.66" height="0.88"/><rect class="cls-14" x="108.67" y="114.3" width="2.66" height="0.88"/><rect class="cls-14" x="108.67" y="116.05" width="2.66" height="0.88"/><rect class="cls-14" x="108.67" y="93.36" width="2.66" height="0.88"/><rect class="cls-14" x="108.67" y="95.1" width="2.66" height="0.89"/><rect class="cls-14" x="108.67" y="96.85" width="2.66" height="0.88"/><rect class="cls-14" x="108.67" y="98.59" width="2.66" height="0.88"/><rect class="cls-14" x="108.67" y="100.34" width="2.66" height="0.88"/><rect class="cls-14" x="108.67" y="102.08" width="2.66" height="0.88"/><rect class="cls-14" x="108.67" y="103.83" width="2.66" height="0.88"/><rect class="cls-14" x="108.67" y="81.14" width="2.66" height="0.88"/><rect class="cls-14" x="108.67" y="82.88" width="2.66" height="0.88"/><rect class="cls-14" x="108.67" y="84.63" width="2.66" height="0.88"/><rect class="cls-14" x="108.67" y="86.37" width="2.66" height="0.88"/><rect class="cls-14" x="108.67" y="74.16" width="2.66" height="0.88"/><rect class="cls-14" x="108.67" y="75.9" width="2.66" height="0.88"/><rect class="cls-14" x="108.67" y="77.65" width="2.66" height="0.88"/><rect class="cls-14" x="108.67" y="79.39" width="2.66" height="0.88"/><rect class="cls-14" x="108.67" y="88.12" width="2.66" height="0.89"/><rect class="cls-14" x="108.67" y="89.86" width="2.66" height="0.88"/><rect class="cls-14" x="108.67" y="91.61" width="2.66" height="0.88"/><rect class="cls-14" x="108.67" y="117.79" width="2.66" height="0.88"/><rect class="cls-14" x="108.67" y="119.54" width="2.66" height="0.88"/><rect class="cls-14" x="108.67" y="121.28" width="2.66" height="0.88"/><rect class="cls-14" x="108.67" y="123.03" width="2.66" height="0.88"/><rect class="cls-14" x="108.67" y="124.77" width="2.66" height="0.89"/><rect class="cls-14" x="108.67" y="126.52" width="2.66" height="0.88"/><rect class="cls-14" x="108.67" y="128.27" width="2.66" height="0.88"/><rect class="cls-14" x="108.67" y="130.01" width="2.66" height="0.88"/><rect class="cls-14" x="108.67" y="131.76" width="2.66" height="0.88"/><rect class="cls-14" x="108.67" y="133.5" width="2.66" height="0.88"/><rect class="cls-14" x="108.67" y="135.25" width="2.66" height="0.88"/><rect class="cls-14" x="108.67" y="136.99" width="2.66" height="0.88"/><path class="cls-12" d="M112.15,75a1.37,1.37,0,0,0-1.33-1.19h-1.64A1.39,1.39,0,0,0,107.85,75l-.65,5.77a1,1,0,0,0,1.06,1.19h3.48a1,1,0,0,0,1.06-1.19Zm-4.06,4.71a1.37,1.37,0,0,1,1.33-1.19h1.17a1.36,1.36,0,0,1,1.32,1.19l0,.41a1.06,1.06,0,0,1-1.07,1.19h-1.78A1.06,1.06,0,0,1,108,80.08Z"/><path class="cls-8" d="M139.67,128.08c-.72,2-7.27,1.41-14.64-1.26s-12.77-6.44-12-8.42,7.27-1.41,14.64,1.26S140.39,126.11,139.67,128.08Z"/><path class="cls-15" d="M166.15,57.86c-.72,2-7.27,1.41-14.64-1.26s-12.77-6.44-12-8.42,7.27-1.41,14.64,1.27S166.87,55.89,166.15,57.86Z"/><path class="cls-16" d="M161.32,56.11c-.42,1.15-4.57.71-9.27-1s-8.18-4-7.76-5.18,4.57-.7,9.27,1S161.74,55,161.32,56.11Z"/><path class="cls-15" d="M152.05,58.84c-2.44-1-10.47-6.45-10-9.75-1.65,0-3.17-1.12-2.18,1.65s5.07,7.11,9.95,8.3C150.93,59,152.05,58.84,152.05,58.84Z"/><path class="cls-17" d="M156.93,54.52c-.21.56-2.22.34-4.49-.49s-4-1.94-3.76-2.5,2.22-.34,4.49.48S157.13,54,156.93,54.52Z"/><path class="cls-18" d="M149.81,59l-26.58,71.24s-12-6.72-10.25-11.88c3.14-8.67,26.35-69.83,26.35-69.83S139.73,54.79,149.81,59Z"/><polygon class="cls-19" points="123.13 130.28 126 129.88 152.18 58.74 149.81 59.04 123.13 130.28"/><path class="cls-20" d="M218.93,109.71A109.22,109.22,0,1,1,109.72.5,109.22,109.22,0,0,1,218.93,109.71Z"/></g></g></svg>